<svg xmlns="http://www.w3.org/2000/svg" width="72" height="72" viewBox="0 0 72 72">
  <path d="M13 42C7 37 7 27 14 23c7-5 13-2 17 1 7-9 24-7 29 4 6 13-5 27-19 28-11 1-20-3-28-14z" fill="#ff5a73" stroke="#142436" stroke-width="4"/>
  <path d="M20 45c-9 7-15 5-17 1 5-1 6-6 8-10z" fill="#f7d4dc" stroke="#142436" stroke-width="3"/>
  <circle cx="45" cy="30" r="8" fill="#f7f1df"/><circle cx="48" cy="30" r="4" fill="#142436"/>
  <path d="M58 37l11 5-11 5z" fill="#ffc857" stroke="#142436" stroke-width="3"/>
  <path d="M29 19l4-11 6 10M19 23l-4-10 10 6" fill="#ff8fa0" stroke="#142436" stroke-width="3" stroke-linecap="round"/>
</svg>
