<svg xmlns="http://www.w3.org/2000/svg" width="76" height="480" viewBox="0 0 76 480">
  <path d="M13 0h50v444H13z" fill="#243b4c" stroke="#142436" stroke-width="5"/>
  <path d="M20 0h10v444H20z" fill="#6cd5bf"/>
  <path d="M46 0h10v444H46z" fill="#f06b82"/>
  <g fill="#f5d271" stroke="#142436" stroke-width="3">
    <path d="M7 30h62v22H7zM7 91h62v22H7zM7 152h62v22H7zM7 213h62v22H7zM7 274h62v22H7zM7 335h62v22H7zM7 396h62v22H7z"/>
  </g>
  <path d="M2 438h72v40H2z" fill="#f7efe0" stroke="#142436" stroke-width="5"/>
  <path d="M14 451h48v13H14z" fill="#8b78ff"/>
</svg>
